<?xml version="1.0" encoding="UTF-8"?>
<!DOCTYPE svg PUBLIC "-//W3C//DTD SVG 1.1//EN" "http://www.w3.org/Graphics/SVG/1.1/DTD/svg11.dtd">
<!-- Creator: CorelDRAW X7 -->
<svg xmlns="http://www.w3.org/2000/svg" xml:space="preserve" width="15.4092mm" height="5.9266mm" version="1.1" style="shape-rendering:geometricPrecision; text-rendering:geometricPrecision; image-rendering:optimizeQuality; fill-rule:evenodd; clip-rule:evenodd"
viewBox="0 0 1541 593"
 xmlns:xlink="http://www.w3.org/1999/xlink">
 <defs>
  <style type="text/css">
   <![CDATA[
    .fil0 {fill:#249DB0}
   ]]>
  </style>
 </defs>
 <g id="Capa_x0020_1">
  <metadata id="CorelCorpID_0Corel-Layer"/>
  <path class="fil0" d="M977 212c0,1 -1,2 -1,3 -1,1 -1,2 -1,4 0,1 0,3 1,4 0,1 1,2 2,3l0 0c1,1 2,2 3,3 2,0 3,0 4,0 2,0 3,0 4,0 2,-1 3,-1 3,-2l1 -1c1,-1 2,-2 2,-3l0 0c1,-1 1,-3 1,-4 0,-2 0,-3 -1,-4l0 0c0,-1 -1,-3 -2,-4 -1,-1 -2,-1 -4,-2l0 0c-1,0 -2,-1 -4,-1 -1,0 -2,1 -4,1l0 0c-1,1 -2,1 -3,2l-1 1zm60 -166c-38,-23 -95,-34 -166,-41 -8,0 -17,-1 -25,-2 -8,0 -15,-1 -22,-1l27 92 0 0c5,16 9,25 16,30 7,5 18,7 35,9l0 0 11 1 181 15c1,-48 -19,-81 -57,-103zm46 168c4,-15 8,-29 9,-42l-195 -17 0 0c-24,-2 -37,-4 -47,-11 -9,-8 -14,-20 -21,-44l0 0 -29 -99c-5,0 -9,0 -14,0 -5,0 -10,0 -15,0 -5,0 -10,0 -15,0 -4,0 -9,0 -13,0l-30 99 0 0c-7,24 -12,36 -21,44 -10,7 -23,9 -47,11l0 0 -196 17c1,10 3,21 6,33 4,12 8,25 13,39l101 88c1,1 2,2 2,3 1,1 1,3 0,4l-20 67c6,10 12,20 19,30 5,9 11,17 18,26l40 -135 0 0c2,-6 3,-12 2,-19 -1,-6 -4,-13 -11,-19l-48 -43c-2,1 -4,2 -7,3 -2,0 -5,1 -7,1 -5,0 -9,-1 -12,-3 -4,-1 -7,-3 -10,-6l0 0 0 0c-3,-3 -5,-7 -7,-10 -1,-4 -2,-8 -2,-12 0,-4 1,-8 2,-12 2,-4 4,-7 7,-10 2,-2 5,-5 9,-6 3,-2 6,-3 10,-3l0 0 5 0 0 0c4,0 7,1 10,3 4,1 7,4 9,6l1 1 0 0c3,2 5,6 6,9 2,4 2,8 2,12 0,2 0,4 0,6 0,1 -1,3 -1,4l44 39c11,10 18,18 22,28 3,10 3,21 -1,36l0 0 -46 153c2,3 4,5 6,8 2,3 4,5 7,8l125 -93c-1,-1 -2,-3 -2,-5 -1,-2 -1,-4 -1,-7 0,-4 1,-8 2,-12 2,-3 4,-7 7,-10l1 0 0 0c3,-3 6,-5 9,-6 4,-2 8,-3 12,-3l0 0 0 0 0 0c4,0 8,1 12,3 4,1 7,4 10,6l0 0 0 0 0 0c3,3 5,7 6,10 2,4 3,8 3,12 0,4 -1,8 -3,12 -1,3 -3,7 -6,9l0 0 0 1c-2,2 -4,3 -6,4 -1,1 -3,2 -4,3l-1 167c24,-2 47,-10 71,-25 24,-15 47,-37 71,-65 2,-3 4,-6 7,-9 2,-3 4,-5 6,-8l-46 -153 0 0c-4,-15 -4,-26 -1,-36 4,-10 11,-18 22,-28l44 -39c0,-1 -1,-3 -1,-4 0,-2 0,-4 0,-6 0,-4 0,-8 2,-12 1,-3 3,-7 6,-9l0 0 1 -1c2,-2 5,-5 9,-6 3,-2 6,-3 10,-3l0 0 5 0 0 0c4,0 7,1 10,3 4,1 7,4 9,6 3,3 5,6 7,10 1,4 2,8 2,12 0,4 -1,8 -2,12 -2,3 -4,7 -7,10l0 0 0 0c-3,3 -6,5 -10,6 -3,2 -7,3 -12,3 -2,0 -5,-1 -7,-1 -3,-1 -5,-2 -7,-3l-48 43c-7,6 -10,13 -11,19 -1,7 0,13 2,19l0 0 40 135c20,-27 38,-56 55,-85 17,-31 33,-62 47,-94l0 0c2,-3 3,-6 4,-9 1,-2 2,-5 4,-8 8,-19 14,-36 19,-52zm-248 137l0 0 -64 -39 -63 39 0 0 0 0c-2,1 -4,2 -6,1 -2,0 -3,-1 -5,-3l0 0 0 0 0 0 0 0 0 0 0 0 0 0 0 0 0 0 0 0 0 -1 0 0 0 0 0 0 0 0 0 0 0 0 0 0 0 0 0 0 0 0 0 0 0 0 0 0 0 0 0 0 0 0 0 0 0 0 0 0 0 0 0 0 0 0 0 -1 0 0 0 0 0 0 0 0 0 0 0 0 0 0 0 0 0 0 0 0 0 0c-1,-1 -1,-2 -1,-2 0,-1 0,-1 0,-2l0 0 1 0 18 -73 -58 -48c-1,-1 -2,-3 -2,-5 -1,-2 0,-4 1,-5 1,-1 2,-2 3,-2 0,0 0,0 1,-1l0 0 2 0 74 -5 28 -70 0 0 0 0 0 0 1 0 0 0 0 0 0 0 0 0 0 0 0 0 0 0 0 -1 0 0 0 0 0 0 0 0 0 0 0 0 0 0 0 0 0 0 0 0 0 0 0 0 0 0 0 -1 0 0 1 0 0 0 0 0 0 0 0 0 0 0 0 0 0 0 0 0 0 0 0 0 0 0 0 0 0 0 0 0 0 -1 0 0 0 0 1 0 0 0 0 0 0 0 0 0 0 0 0 0 0 0 0 0 0 0 0 0 0 0 0 0 0 0 1 0 0 0 0 0 0 0 0 0 0 0 0 0 0 -1 0 0 0 0 0 0 0 0 0 0 0 0 0 0 0 0 0 0 0 0 0 0 0 0 0 0 1 0 0 0 0 0 0 0 0 0 0 0 0 0 0 0 0 0 0 0 0 0 0 0 0 0 0 0 0 0 0 0 1 0 0 0 0 0 0 0 0 0 0 0 0 0 0 0 0 0 0 0 0 0 0 0 0 0 0 0 0 0 0 0 1 0 0 0 0 0 0 0 0 0 0 0 0 0 0 0 0 0 0 0 0 0 0 0 0 0 0 0 0 0 0 0c1,0 1,0 2,0l0 0c0,0 1,0 1,0 1,1 2,1 3,2 0,1 1,1 1,2l0 0 28 70 75 5c2,0 4,1 5,3 2,1 2,3 2,5 0,1 0,2 -1,3 0,1 -1,2 -2,3l-57 47 18 73c1,2 0,4 -1,6 -1,1 -2,3 -4,3l0 0c-1,1 -2,1 -4,0 -1,0 -2,0 -2,-1zm-56 38c-1,-1 -3,-2 -4,-3 -1,0 -3,0 -4,0 -2,0 -3,0 -4,0 -1,1 -2,1 -3,2l-1 1c-1,1 -1,2 -2,3l0 0c0,1 -1,3 -1,4 0,2 1,3 1,4l0 0c1,2 1,3 2,4l0 0c1,1 3,2 4,2l0 0c1,1 3,1 4,1 1,0 3,0 4,-1l0 0c1,0 3,-1 4,-2l0 -1c1,-1 1,-2 2,-3 0,-1 1,-2 1,-4 0,-1 -1,-3 -1,-4 -1,-1 -2,-2 -2,-3zm-212 -170c0,-2 0,-3 -1,-4 0,-1 -1,-2 -1,-3l-1 -1c-1,-1 -2,-1 -3,-2l0 0c-2,0 -3,-1 -4,-1 -2,0 -3,1 -4,1l0 0c-2,1 -3,1 -4,2 -1,1 -2,3 -2,4l0 0c-1,1 -1,2 -1,4 0,1 0,3 1,4l0 0c0,1 1,2 2,3l1 1c0,1 1,1 2,2 2,0 3,0 5,0 1,0 2,0 4,0 1,-1 2,-2 3,-3l0 0c1,-1 2,-2 2,-3 1,-1 1,-3 1,-4zm-9 120l-78 -69c8,19 17,37 26,56 10,19 20,39 31,58l0 0c1,2 2,4 4,6l1 2 16 -53zm133 -245l27 -92c-7,0 -15,1 -22,1 -9,1 -18,2 -26,2 -50,5 -93,12 -128,24 -33,11 -58,27 -74,48l149 -13c1,0 3,0 4,1l0 0c1,1 2,3 2,5l0 0c0,1 0,3 -1,4l0 0c-1,1 -3,2 -4,2l0 0 -158 14c-5,8 -8,17 -10,27 -3,10 -4,21 -3,32l182 -15 11 -1 0 0c17,-2 28,-4 35,-9 7,-5 11,-14 16,-30l0 0zm68 498l1 -167c-2,-1 -4,-2 -5,-3 -2,-1 -4,-2 -5,-4l-124 93c13,15 26,28 39,38 13,11 26,19 38,26l0 -69c0,-2 1,-4 2,-5l0 0c1,-1 3,-2 5,-2 1,0 3,1 4,2 1,1 2,3 2,5l0 75c7,3 15,5 22,7 7,2 14,3 21,4z"/>
 </g>
</svg>
