<?xml version="1.0" encoding="UTF-8"?>
<!DOCTYPE svg PUBLIC "-//W3C//DTD SVG 1.1//EN" "http://www.w3.org/Graphics/SVG/1.1/DTD/svg11.dtd">
<!-- Creator: CorelDRAW X7 -->
<svg xmlns="http://www.w3.org/2000/svg" xml:space="preserve" width="15.4092mm" height="5.9266mm" version="1.1" style="shape-rendering:geometricPrecision; text-rendering:geometricPrecision; image-rendering:optimizeQuality; fill-rule:evenodd; clip-rule:evenodd"
viewBox="0 0 1541 593"
 xmlns:xlink="http://www.w3.org/1999/xlink">
 <defs>
  <style type="text/css">
   <![CDATA[
    .fil0 {fill:#072D4F}
    .fil2 {fill:#317992}
    .fil1 {fill:#620E0E}
   ]]>
  </style>
 </defs>
 <g id="Capa_x0020_1">
  <metadata id="CorelCorpID_0Corel-Layer"/>
  <g id="_494873289488">
   <path class="fil0" d="M869 459l0 11 11 0 0 0 0 1 0 21 0 0 0 0c-2,1 -4,1 -6,1 -2,0 -5,1 -8,1 -5,0 -8,-1 -11,-2 -3,-1 -5,-3 -7,-6 -3,-4 -4,-13 -4,-25 0,-7 0,-12 1,-16 1,-4 2,-8 4,-10 1,-2 3,-4 6,-5 3,-1 6,-2 11,-2 8,0 16,1 26,2l1 -10 -4 -1 0 0c-9,-2 -18,-2 -25,-2 -6,0 -11,0 -16,2 -4,2 -8,5 -10,8 -5,7 -8,18 -8,33 0,8 1,15 2,20 2,6 3,11 6,14 2,4 6,6 10,8 5,2 10,3 17,3 1,0 3,0 6,0 2,-1 5,-1 9,-1 3,-1 6,-1 8,-1 2,0 4,-1 5,-1l0 -43 -24 0zm91 44l0 -30 0 0 0 0 20 0 1 0 0 0 12 30 15 0 -14 -33 -1 0 1 0c5,-3 8,-6 10,-10l0 0c3,-4 4,-9 4,-15 0,-18 -10,-27 -29,-27l-32 0 0 85 13 0zm30 -70c3,3 4,7 4,12 0,3 0,5 -1,7 0,2 -1,3 -2,5 -2,1 -3,3 -5,3 -2,1 -4,1 -7,1l-19 0 0 0 0 0 0 -31 0 -1 0 0 19 0c5,0 9,1 11,4zm90 59c-2,-2 -5,-4 -6,-6 -2,-3 -3,-6 -3,-10 -1,-4 -1,-9 -1,-15 0,-6 0,-11 1,-15 0,-4 2,-7 3,-10l0 0c2,-3 4,-5 6,-6 3,-1 7,-2 11,-2 4,0 7,1 10,2 3,1 5,3 6,6 2,3 3,6 4,10 0,4 1,9 1,15 0,6 -1,11 -1,15 -1,4 -2,7 -4,10 -1,3 -3,4 -6,6 -3,1 -6,2 -10,2 -4,0 -8,-1 -11,-2zm27 10c5,-2 8,-4 11,-8 2,-3 4,-8 5,-13 2,-6 2,-12 2,-20 0,-7 0,-14 -2,-20 -1,-5 -3,-10 -5,-14 -3,-3 -6,-6 -11,-8 -4,-2 -10,-2 -16,-2 -7,0 -12,0 -17,2 -4,2 -8,5 -10,8 -3,4 -5,9 -6,14 -1,6 -2,13 -2,20 0,8 1,14 2,20 1,5 3,10 6,13 2,4 6,6 10,8 5,2 10,3 17,3 6,0 12,-1 16,-3zm101 -8c-12,0 -18,-6 -18,-18l0 -58 -13 0 0 58c0,5 1,9 2,13 1,4 3,7 6,9 2,2 6,4 9,5 4,1 9,2 14,2 5,0 10,-1 14,-2 4,-1 7,-3 10,-5 2,-2 4,-5 6,-9 1,-4 2,-8 2,-13l0 -58 -14 0 0 58c0,6 -1,10 -4,13 -3,3 -8,5 -14,5zm100 -17l18 0c5,0 9,-1 13,-2 3,-2 6,-4 9,-6 2,-3 4,-6 5,-10 1,-3 2,-8 2,-12 0,-10 -2,-17 -7,-22 -5,-5 -12,-7 -22,-7l-31 0 0 85 13 0 0 -26 0 0 0 0zm18 -12l-18 0 0 0 0 0 0 -35 0 -1 0 0 18 0c3,0 5,0 7,1 2,1 3,2 5,3 1,2 2,4 3,6 0,2 1,5 1,8 0,6 -2,10 -4,14 -3,3 -7,4 -12,4z"/>
   <path class="fil1" d="M697 338l-22 0c-21,-3 -32,-16 -32,-39l0 -96c0,-7 1,-12 3,-17 1,-5 4,-9 7,-13 7,-7 18,-10 32,-10 5,0 9,0 14,1 4,0 7,1 11,2l0 27c-4,-1 -8,-2 -12,-3 -4,0 -7,-1 -11,-1 -4,0 -7,1 -10,1 -2,1 -4,2 -6,3 -1,2 -2,3 -3,5 -1,2 -1,5 -1,7l0 91c0,5 2,9 5,12l0 0c3,2 7,4 13,4 10,0 19,-2 26,-4l0 27c-4,1 -8,2 -12,2 -1,0 -2,1 -2,1zm217 -119l0 -16c0,-26 -11,-39 -34,-39l-43 0 0 173 44 0c23,0 34,-13 34,-39l0 -17c0,-9 -1,-15 -4,-20 -2,-6 -6,-9 -11,-11l-1 0 1 -1c5,-2 8,-6 10,-11 3,-5 4,-11 4,-19zm-53 -30l15 0c5,0 9,1 11,4 2,3 4,7 4,12l0 16c0,5 -2,9 -4,12 -2,3 -6,4 -11,4l-15 0 -1 0 0 -1 0 -47 0 0 1 0zm31 90l0 17c0,11 -5,16 -14,16l-17 0 -1 0 0 0 0 -49 0 0 1 0 17 0c4,0 8,1 10,4 3,3 4,7 4,12zm101 15l7 43 23 0 -29 -173 -33 0 -30 173 23 0 7 -43 0 0 0 0 32 0 0 0 0 0zm-4 -25l-24 0 0 0 0 -1 11 -77 1 -3 0 3 12 77 0 1 0 0zm137 -105l-24 0 0 59c0,11 0,21 1,31 0,10 1,19 2,27l0 0c0,3 0,5 0,7 1,1 1,2 1,3l0 3 -1 -3c0,-1 -1,-2 -1,-3 0,-2 -1,-4 -2,-6 0,-3 -1,-6 -2,-10 -1,-3 -2,-7 -4,-12 -1,-5 -4,-16 -9,-32 -5,-16 -12,-37 -21,-64l-25 0 0 173 24 0 0 -61c0,-11 0,-22 -1,-31 0,-10 -1,-18 -2,-26 0,-6 -1,-9 -1,-9l0 -4 1 3 1 5 4 13c1,5 5,17 11,35 5,18 13,43 23,75l25 0 0 -173zm136 26l0 -26 -77 0 0 26 26 0 0 0 0 0 0 147 25 0 0 -147 0 0 0 0 26 0zm84 -26l-67 0 0 173 67 0 0 -26 -42 0 -1 0 0 0 0 -48 0 -1 1 0 37 0 0 -25 -37 0 -1 0 0 -1 0 -46 0 0 1 0 42 0 0 -26zm194 0l-25 0 0 74 0 1 0 0 -35 0 0 0 0 -1 0 -74 -24 0 0 173 24 0 0 -71 0 -1 0 0 35 0 0 0 0 1 0 71 25 0 0 -173zm-120 174l-22 0c-21,-3 -32,-16 -32,-39l0 -96c0,-7 1,-12 3,-17 2,-5 4,-9 8,-13 7,-7 17,-10 32,-10 4,0 9,0 13,1 4,0 8,1 11,2l0 27c-4,-1 -7,-2 -11,-3 -4,0 -8,-1 -12,-1 -4,0 -7,1 -9,1 -3,1 -5,2 -7,3 -1,2 -2,3 -3,5 0,2 -1,5 -1,7l0 91c0,5 2,9 5,12 3,2 8,4 14,4 10,0 18,-2 25,-4l0 27c-4,1 -8,2 -12,2 -1,0 -1,1 -2,1zm-679 -10c-3,-4 -5,-9 -7,-14l0 0c-2,-5 -2,-11 -2,-17l0 -133 23 0 0 131c0,6 2,10 4,13 3,3 7,5 12,5 5,0 9,-2 12,-5 2,-3 4,-7 4,-13l0 -131 23 0 0 133c0,6 0,12 -2,17 -2,5 -4,10 -8,14 -13,15 -46,15 -59,0z"/>
   <g>
    <path class="fil2" d="M216 336l0 0zm69 37c-2,-2 -4,-3 -7,-3 -3,0 -6,1 -8,3l0 0c-2,2 -3,5 -3,8 0,3 1,6 3,8 2,1 5,3 8,3 3,0 5,-2 7,-3l0 0c2,-2 3,-5 3,-8 0,-3 -1,-6 -3,-8zm-178 -142c0,-3 -1,-6 -3,-8l0 0c-2,-2 -5,-3 -8,-3 -3,0 -6,1 -8,3 -2,2 -3,5 -3,8 0,3 1,5 3,7l0 0c2,2 5,3 8,3 3,0 6,-1 8,-3 2,-2 3,-4 3,-7zm16 210l35 -118c3,-11 4,-23 -8,-34l-42 -37c-3,2 -8,3 -12,3 -7,0 -13,-3 -17,-7l0 0c-5,-5 -7,-11 -7,-17 0,-7 2,-13 7,-18 4,-4 9,-6 15,-7l4 0c6,1 11,3 15,7l0 0c5,5 7,11 7,18 0,3 0,6 -1,9l38 34c18,16 24,27 17,52l-39 130c4,6 8,11 12,16l0 0 109 -80c-2,-3 -3,-7 -3,-11 0,-7 3,-13 7,-17l0 0c5,-5 11,-7 18,-7 0,0 0,0 0,0l8 -21 -8 -29 -55 34c-2,2 -5,1 -6,-1 -1,-1 -1,-3 -1,-4l16 -62 -50 -42c-2,-1 -2,-4 0,-6 1,-1 2,-2 3,-2l0 0 65 -4 24 -60c0,-2 2,-3 4,-3l11 -62 -11 -51c-9,0 -17,0 -26,1l-25 85c-11,39 -17,41 -56,45l-168 15c2,18 8,39 17,63l86 75c1,1 1,2 1,4l-18 58c11,17 22,34 34,51zm-23 -109l-74 -64c1,1 1,2 2,3 15,34 31,68 50,100 2,4 4,7 6,11l16 -50zm112 -207l23 -80c-14,1 -29,2 -43,3 -85,8 -147,25 -175,64l130 -11c2,0 4,1 4,3 0,2 -1,4 -3,4l-135 12c-9,15 -12,32 -12,54l156 -14 10 -1c30,-3 37,-5 45,-34zm57 423l1 -144c-4,-1 -7,-3 -10,-6l0 -1 -108 81c23,26 47,45 70,57l0 -62c0,-1 2,-3 4,-3 2,0 3,2 3,3l0 65c13,6 27,9 40,10z"/>
    <path class="fil0" d="M362 48c159,14 235,61 165,223 -2,5 -4,10 -6,15 -30,66 -66,129 -113,186 -39,48 -81,74 -123,76l1 -144c3,-1 6,-3 9,-6l0 0c4,-4 7,-10 7,-17 0,-7 -3,-13 -7,-17l0 0c-5,-5 -10,-7 -17,-7l0 -50 54 34c2,1 3,1 4,1 3,-1 4,-3 4,-6l-16 -62 49 -42c1,0 2,-2 2,-3 0,-3 -2,-5 -4,-5l-65 -4 -24 -60c0,-1 -1,-2 -2,-3 -1,0 -1,0 -2,0l0 -113c28,0 56,1 84,4z"/>
    <g>
     <path class="fil2" d="M384 175c-39,-4 -45,-6 -55,-45l-26 -85c6,0 11,0 17,0l24 80c8,29 14,31 45,34l9 1 155 14c0,5 0,10 -1,15l-168 -14zm36 281l-39 -130c-6,-25 -1,-36 17,-52l39 -34c-1,-3 -2,-6 -2,-9 0,-7 3,-13 7,-18l0 0c4,-4 9,-6 15,-7l4 0c6,1 12,3 16,7 4,5 7,11 7,18 0,6 -3,12 -7,17l0 0c-5,4 -11,7 -18,7 -4,0 -8,-1 -12,-3l-42 37c-12,11 -11,23 -8,34l35 118 -12 15zm32 -233c-2,2 -3,5 -3,8 0,3 1,5 3,7 2,2 4,3 7,3 3,0 6,-1 8,-3l0 0c2,-2 3,-4 3,-7 0,-3 -1,-6 -3,-8 -2,-2 -5,-3 -8,-3 -3,0 -5,1 -7,3l0 0z"/>
    </g>
   </g>
  </g>
 </g>
</svg>
